<svg xmlns="http://www.w3.org/2000/svg" viewBox="0 0 1800 1100" width="1800" height="1100" preserveAspectRatio="xMidYMid meet" font-family="'Segoe UI', 'SF Pro Display', 'Helvetica Neue', Arial, sans-serif">
  <defs>
    <marker id="arrow" viewBox="0 0 10 10" refX="9" refY="5" markerWidth="8" markerHeight="8" orient="auto-start-reverse">
      <path d="M 0 0 L 10 5 L 0 10 z" fill="#334155"/>
    </marker>
    <marker id="arrowGray" viewBox="0 0 10 10" refX="9" refY="5" markerWidth="8" markerHeight="8" orient="auto-start-reverse">
      <path d="M 0 0 L 10 5 L 0 10 z" fill="#64748B"/>
    </marker>
    <linearGradient id="bronzeGrad" x1="0" x2="0" y1="0" y2="1">
      <stop offset="0%" stop-color="#F4D9B0"/>
      <stop offset="100%" stop-color="#B87333"/>
    </linearGradient>
    <linearGradient id="silverGrad" x1="0" x2="0" y1="0" y2="1">
      <stop offset="0%" stop-color="#F1F5F9"/>
      <stop offset="100%" stop-color="#94A3B8"/>
    </linearGradient>
    <linearGradient id="goldGrad" x1="0" x2="0" y1="0" y2="1">
      <stop offset="0%" stop-color="#FDE68A"/>
      <stop offset="100%" stop-color="#D4A017"/>
    </linearGradient>
    <linearGradient id="azureGrad" x1="0" x2="0" y1="0" y2="1">
      <stop offset="0%" stop-color="#38BDF8"/>
      <stop offset="100%" stop-color="#0369A1"/>
    </linearGradient>
    <linearGradient id="dbxGrad" x1="0" x2="0" y1="0" y2="1">
      <stop offset="0%" stop-color="#FB923C"/>
      <stop offset="100%" stop-color="#EA580C"/>
    </linearGradient>
    <linearGradient id="ucGrad" x1="0" x2="0" y1="0" y2="1">
      <stop offset="0%" stop-color="#FFFBEB"/>
      <stop offset="100%" stop-color="#FEF3C7"/>
    </linearGradient>
    <linearGradient id="repoGrad" x1="0" x2="0" y1="0" y2="1">
      <stop offset="0%" stop-color="#EFF6FF"/>
      <stop offset="100%" stop-color="#DBEAFE"/>
    </linearGradient>
    <linearGradient id="jobsGrad" x1="0" x2="0" y1="0" y2="1">
      <stop offset="0%" stop-color="#34D399"/>
      <stop offset="100%" stop-color="#047857"/>
    </linearGradient>
  </defs>

  <rect x="0" y="0" width="1800" height="1100" fill="#F8FAFC"/>

  <text x="900" y="55" text-anchor="middle" font-size="30" font-weight="700" fill="#0F172A">NovaCart Data Engineering Architecture on Databricks</text>
  <text x="900" y="92" text-anchor="middle" font-size="15" fill="#475569">Lakehouse Federation  •  Medallion Architecture  •  Delta Lake  •  SCD2 History  •  Unity Catalog Volumes</text>

  <g>
    <rect x="50" y="170" width="300" height="490" rx="18" ry="18" fill="url(#azureGrad)" stroke="#0F172A" stroke-width="1.6"/>
    <rect x="50" y="170" width="300" height="70" rx="18" ry="18" fill="#075985"/>
    <rect x="50" y="222" width="300" height="18" fill="#075985"/>
    <text x="200" y="203" text-anchor="middle" font-size="20" font-weight="700" fill="#FFFFFF">Azure SQL Database</text>
    <text x="200" y="227" text-anchor="middle" font-size="13" fill="#E0F2FE">Source System (OLTP)</text>

    <rect x="80" y="260" width="240" height="110" rx="12" ry="12" fill="#FFFFFF" stroke="#0C4A6E" stroke-width="1.2"/>
    <text x="200" y="295" text-anchor="middle" font-size="16" font-weight="700" fill="#0F172A">Customer Orders</text>
    <text x="200" y="320" text-anchor="middle" font-size="12" fill="#475569">Table: orders</text>
    <text x="200" y="344" text-anchor="middle" font-size="11" fill="#475569">PK: order_id  •  Watermark: updated_at</text>

    <rect x="80" y="390" width="240" height="110" rx="12" ry="12" fill="#FFFFFF" stroke="#0C4A6E" stroke-width="1.2"/>
    <text x="200" y="425" text-anchor="middle" font-size="16" font-weight="700" fill="#0F172A">Product Details</text>
    <text x="200" y="450" text-anchor="middle" font-size="12" fill="#475569">Table: products</text>
    <text x="200" y="474" text-anchor="middle" font-size="11" fill="#475569">PK: product_id  •  Watermark: updated_at</text>

    <rect x="80" y="520" width="240" height="110" rx="12" ry="12" fill="#FFFFFF" stroke="#0C4A6E" stroke-width="1.2"/>
    <text x="200" y="555" text-anchor="middle" font-size="16" font-weight="700" fill="#0F172A">Payment Transactions</text>
    <text x="200" y="580" text-anchor="middle" font-size="12" fill="#475569">Table: payments</text>
    <text x="200" y="604" text-anchor="middle" font-size="11" fill="#475569">PK: payment_id  •  Watermark: processed_at</text>
  </g>

  <g>
    <rect x="410" y="370" width="240" height="140" rx="14" ry="14" fill="#FFFFFF" stroke="#0078D4" stroke-width="2.4"/>
    <text x="530" y="410" text-anchor="middle" font-size="16" font-weight="700" fill="#0F172A">Databricks</text>
    <text x="530" y="438" text-anchor="middle" font-size="16" font-weight="700" fill="#0078D4">Lakehouse Federation</text>
    <line x1="440" y1="458" x2="620" y2="458" stroke="#CBD5E1"/>
    <text x="530" y="480" text-anchor="middle" font-size="13" fill="#475569">Ingestion Connector</text>
    <text x="530" y="498" text-anchor="middle" font-size="11" font-style="italic" fill="#64748B">via Unity Catalog Foreign Catalog</text>
  </g>

  <line x1="350" y1="440" x2="410" y2="440" stroke="#334155" stroke-width="2.4" marker-end="url(#arrow)"/>
  <line x1="650" y1="440" x2="720" y2="440" stroke="#334155" stroke-width="2.4" marker-end="url(#arrow)"/>

  <g>
    <rect x="720" y="130" width="1060" height="700" rx="22" ry="22" fill="#FFFFFF" stroke="#EA580C" stroke-width="3"/>
    <rect x="720" y="130" width="1060" height="70" rx="22" ry="22" fill="url(#dbxGrad)"/>
    <rect x="720" y="170" width="1060" height="30" fill="url(#dbxGrad)"/>
    <text x="755" y="168" font-size="24" font-weight="700" fill="#FFFFFF">Azure Databricks</text>
    <text x="755" y="190" font-size="13" fill="#FFEDD5">Processing Platform</text>

    <g>
      <rect x="1580" y="146" width="180" height="42" rx="21" ry="21" fill="#0F172A"/>
      <circle cx="1610" cy="167" r="12" fill="#FFFFFF"/>
      <text x="1610" y="172" text-anchor="middle" font-size="13" font-weight="700" fill="#0F172A">GH</text>
      <text x="1638" y="166" font-size="13" font-weight="700" fill="#FFFFFF">GitHub</text>
      <text x="1638" y="182" font-size="11" fill="#E2E8F0">Version Control</text>
    </g>

    <g>
      <rect x="750" y="230" width="1000" height="580" rx="16" ry="16" fill="url(#ucGrad)" stroke="#D97706" stroke-width="1.8"/>
      <text x="1250" y="264" text-anchor="middle" font-size="22" font-weight="700" fill="#92400E">Unity Catalog</text>
      <text x="1250" y="290" text-anchor="middle" font-size="13" font-style="italic" fill="#9A3412">Catalog: dbw_data_prj</text>

      <g>
        <rect x="770" y="320" width="960" height="470" rx="14" ry="14" fill="url(#repoGrad)" stroke="#1D4ED8" stroke-width="1.6"/>
        <text x="1250" y="352" text-anchor="middle" font-size="18" font-weight="700" fill="#1E3A8A">Databricks Repos</text>

        <g>
          <rect x="790" y="380" width="290" height="390" rx="14" ry="14" fill="url(#bronzeGrad)" stroke="#0F172A" stroke-width="1.4"/>
          <text x="935" y="417" text-anchor="middle" font-size="24" font-weight="700" fill="#0F172A">Bronze</text>
          <text x="935" y="446" text-anchor="middle" font-size="13" fill="#0F172A">Incremental Data Loading</text>
          <line x1="810" y1="465" x2="1060" y2="465" stroke="#0F172A" stroke-opacity="0.4"/>
          <text x="935" y="488" text-anchor="middle" font-size="11" font-weight="700" fill="#1F2937" letter-spacing="1">TABLES</text>
          <text x="935" y="512" text-anchor="middle" font-size="13" fill="#0F172A">orders_raw</text>
          <text x="935" y="535" text-anchor="middle" font-size="13" fill="#0F172A">products_raw</text>
          <text x="935" y="558" text-anchor="middle" font-size="13" fill="#0F172A">payments_raw</text>
          <line x1="810" y1="578" x2="1060" y2="578" stroke="#0F172A" stroke-opacity="0.4"/>
          <text x="935" y="600" text-anchor="middle" font-size="11" font-weight="700" fill="#1F2937" letter-spacing="1">CONTROL TABLE</text>
          <text x="935" y="623" text-anchor="middle" font-size="13" font-style="italic" fill="#0F172A">ingestion_control</text>
          <text x="935" y="642" text-anchor="middle" font-size="10" fill="#1F2937">(timestamp + PK watermark)</text>
          <line x1="810" y1="660" x2="1060" y2="660" stroke="#0F172A" stroke-opacity="0.4"/>
          <text x="935" y="682" text-anchor="middle" font-size="11" font-weight="700" fill="#1F2937" letter-spacing="1">AUDIT COLUMNS</text>
          <text x="935" y="704" text-anchor="middle" font-size="11" fill="#0F172A">bronze_ingested_at</text>
          <text x="935" y="722" text-anchor="middle" font-size="11" fill="#0F172A">bronze_run_id</text>
          <text x="935" y="740" text-anchor="middle" font-size="11" fill="#0F172A">bronze_source_table</text>
        </g>

        <g>
          <rect x="1100" y="380" width="290" height="390" rx="14" ry="14" fill="url(#silverGrad)" stroke="#0F172A" stroke-width="1.4"/>
          <text x="1245" y="417" text-anchor="middle" font-size="24" font-weight="700" fill="#0F172A">Silver</text>
          <text x="1245" y="442" text-anchor="middle" font-size="13" fill="#0F172A">Data Cleaning and</text>
          <text x="1245" y="459" text-anchor="middle" font-size="13" fill="#0F172A">Transformations</text>
          <line x1="1120" y1="475" x2="1370" y2="475" stroke="#0F172A" stroke-opacity="0.4"/>
          <text x="1245" y="497" text-anchor="middle" font-size="11" font-weight="700" fill="#1F2937" letter-spacing="1">TRANSFORMED TABLES</text>
          <text x="1245" y="519" text-anchor="middle" font-size="12" fill="#0F172A">orders_transformed</text>
          <text x="1245" y="539" text-anchor="middle" font-size="12" fill="#0F172A">products_transformed</text>
          <text x="1245" y="559" text-anchor="middle" font-size="12" fill="#0F172A">payments_transformed</text>
          <line x1="1120" y1="578" x2="1370" y2="578" stroke="#0F172A" stroke-opacity="0.4"/>
          <text x="1245" y="600" text-anchor="middle" font-size="11" font-weight="700" fill="#991B1B" letter-spacing="1">QUARANTINE TABLES</text>
          <text x="1245" y="622" text-anchor="middle" font-size="12" fill="#7F1D1D">orders_quarantine</text>
          <text x="1245" y="642" text-anchor="middle" font-size="12" fill="#7F1D1D">products_quarantine</text>
          <text x="1245" y="662" text-anchor="middle" font-size="12" fill="#7F1D1D">payments_quarantine</text>
          <line x1="1120" y1="680" x2="1370" y2="680" stroke="#0F172A" stroke-opacity="0.4"/>
          <text x="1245" y="702" text-anchor="middle" font-size="11" font-weight="700" fill="#1F2937" letter-spacing="1">CONTROL TABLE</text>
          <text x="1245" y="725" text-anchor="middle" font-size="13" font-style="italic" fill="#0F172A">processing_control</text>
          <text x="1245" y="744" text-anchor="middle" font-size="10" fill="#1F2937">(bronze_ingested_at watermark)</text>
        </g>

        <g>
          <rect x="1410" y="380" width="290" height="390" rx="14" ry="14" fill="url(#goldGrad)" stroke="#0F172A" stroke-width="1.4"/>
          <text x="1555" y="417" text-anchor="middle" font-size="24" font-weight="700" fill="#0F172A">Gold</text>
          <text x="1555" y="442" text-anchor="middle" font-size="12" fill="#0F172A">Joining, Enrichment, SCD2,</text>
          <text x="1555" y="459" text-anchor="middle" font-size="13" fill="#0F172A">Business Aggregations</text>
          <line x1="1430" y1="475" x2="1680" y2="475" stroke="#0F172A" stroke-opacity="0.4"/>
          <text x="1555" y="497" text-anchor="middle" font-size="11" font-weight="700" fill="#1F2937" letter-spacing="1">FACT and SCD2 TABLES</text>
          <text x="1555" y="519" text-anchor="middle" font-size="12" fill="#0F172A">orders_information</text>
          <text x="1555" y="539" text-anchor="middle" font-size="11" fill="#0F172A">orders_information_scd2</text>
          <text x="1555" y="559" text-anchor="middle" font-size="12" fill="#0F172A">category_performance</text>
          <line x1="1430" y1="578" x2="1680" y2="578" stroke="#0F172A" stroke-opacity="0.4"/>
          <text x="1555" y="600" text-anchor="middle" font-size="11" font-weight="700" fill="#1F2937" letter-spacing="1">VOLUME SNAPSHOTS</text>
          <text x="1555" y="622" text-anchor="middle" font-size="11" font-weight="700" fill="#1F2937">Latest</text>
          <text x="1555" y="638" text-anchor="middle" font-size="10" fill="#0F172A">gold_snapshot_vol/gold_latest</text>
          <text x="1555" y="658" text-anchor="middle" font-size="11" font-weight="700" fill="#1F2937">Historical</text>
          <text x="1555" y="674" text-anchor="middle" font-size="10" fill="#0F172A">gold_snapshots/run_date / run_ts</text>
          <line x1="1430" y1="690" x2="1680" y2="690" stroke="#0F172A" stroke-opacity="0.4"/>
          <text x="1555" y="712" text-anchor="middle" font-size="11" font-weight="700" fill="#1F2937" letter-spacing="1">CONTROL TABLE</text>
          <text x="1555" y="735" text-anchor="middle" font-size="13" font-style="italic" fill="#0F172A">processing_control</text>
        </g>

        <line x1="1080" y1="540" x2="1100" y2="540" stroke="#0F172A" stroke-width="2.4" marker-end="url(#arrow)"/>
        <line x1="1390" y1="540" x2="1410" y2="540" stroke="#0F172A" stroke-width="2.4" marker-end="url(#arrow)"/>
      </g>
    </g>
  </g>

  <g>
    <rect x="300" y="880" width="1200" height="130" rx="18" ry="18" fill="url(#jobsGrad)" stroke="#0F172A" stroke-width="1.6"/>
    <text x="900" y="918" text-anchor="middle" font-size="24" font-weight="700" fill="#FFFFFF">Databricks Jobs and Workflows</text>
    <text x="900" y="948" text-anchor="middle" font-size="14" fill="#ECFDF5">Sequential Notebook Execution</text>
    <text x="900" y="978" text-anchor="middle" font-size="14" font-style="italic" fill="#FFFFFF">novacart_bronze.py  →  novacart_silver.py  →  novacart_gold.py</text>
  </g>

  <line x1="900" y1="880" x2="900" y2="832" stroke="#64748B" stroke-width="2.4" stroke-dasharray="7 5" marker-end="url(#arrowGray)"/>
  <text x="915" y="862" font-size="12" font-style="italic" fill="#475569">orchestrates</text>

  <g>
    <rect x="50" y="1030" width="640" height="50" rx="10" ry="10" fill="#FFFFFF" stroke="#CBD5E1" stroke-width="1"/>
    <text x="68" y="1058" font-size="13" font-weight="700" fill="#0F172A">Legend</text>
    <rect x="130" y="1048" width="14" height="14" fill="url(#bronzeGrad)" stroke="#0F172A"/>
    <text x="150" y="1060" font-size="12" fill="#334155">Bronze</text>
    <rect x="210" y="1048" width="14" height="14" fill="url(#silverGrad)" stroke="#0F172A"/>
    <text x="230" y="1060" font-size="12" fill="#334155">Silver</text>
    <rect x="285" y="1048" width="14" height="14" fill="url(#goldGrad)" stroke="#0F172A"/>
    <text x="305" y="1060" font-size="12" fill="#334155">Gold</text>
    <line x1="360" y1="1055" x2="400" y2="1055" stroke="#334155" stroke-width="2.4" marker-end="url(#arrow)"/>
    <text x="410" y="1060" font-size="12" fill="#334155">Data flow</text>
    <line x1="500" y1="1055" x2="540" y2="1055" stroke="#64748B" stroke-width="2.4" stroke-dasharray="7 5" marker-end="url(#arrowGray)"/>
    <text x="550" y="1060" font-size="12" fill="#334155">Control flow</text>
  </g>
</svg>
