<svg xmlns="http://www.w3.org/2000/svg" viewBox="0 0 1480 1080" font-family="Segoe UI, Arial, sans-serif">
  <defs>
    <marker id="arrow" viewBox="0 0 10 10" refX="9" refY="5" markerWidth="7" markerHeight="7" orient="auto-start-reverse">
      <path d="M 0 0 L 10 5 L 0 10 z" fill="#334155"/>
    </marker>
    <marker id="arrowGreen" viewBox="0 0 10 10" refX="9" refY="5" markerWidth="7" markerHeight="7" orient="auto-start-reverse">
      <path d="M 0 0 L 10 5 L 0 10 z" fill="#16A34A"/>
    </marker>
    <marker id="arrowRed" viewBox="0 0 10 10" refX="9" refY="5" markerWidth="7" markerHeight="7" orient="auto-start-reverse">
      <path d="M 0 0 L 10 5 L 0 10 z" fill="#DC2626"/>
    </marker>
    <linearGradient id="bronzeGrad" x1="0" x2="0" y1="0" y2="1">
      <stop offset="0%" stop-color="#F4C68A"/>
      <stop offset="100%" stop-color="#CD7F32"/>
    </linearGradient>
    <linearGradient id="silverGrad" x1="0" x2="0" y1="0" y2="1">
      <stop offset="0%" stop-color="#F1F5F9"/>
      <stop offset="100%" stop-color="#B0B7C2"/>
    </linearGradient>
    <linearGradient id="goldGrad" x1="0" x2="0" y1="0" y2="1">
      <stop offset="0%" stop-color="#FFE680"/>
      <stop offset="100%" stop-color="#D4A017"/>
    </linearGradient>
    <linearGradient id="azureGrad" x1="0" x2="0" y1="0" y2="1">
      <stop offset="0%" stop-color="#3CC2EE"/>
      <stop offset="100%" stop-color="#0078D4"/>
    </linearGradient>
    <linearGradient id="dbxGrad" x1="0" x2="0" y1="0" y2="1">
      <stop offset="0%" stop-color="#FF6F4D"/>
      <stop offset="100%" stop-color="#FF3621"/>
    </linearGradient>
    <linearGradient id="ucGrad" x1="0" x2="0" y1="0" y2="1">
      <stop offset="0%" stop-color="#FFF7E6"/>
      <stop offset="100%" stop-color="#FDECC8"/>
    </linearGradient>
    <linearGradient id="repoGrad" x1="0" x2="0" y1="0" y2="1">
      <stop offset="0%" stop-color="#EEF2FF"/>
      <stop offset="100%" stop-color="#DBEAFE"/>
    </linearGradient>
    <linearGradient id="biGrad" x1="0" x2="0" y1="0" y2="1">
      <stop offset="0%" stop-color="#A78BFA"/>
      <stop offset="100%" stop-color="#7C3AED"/>
    </linearGradient>
    <linearGradient id="jobsGrad" x1="0" x2="0" y1="0" y2="1">
      <stop offset="0%" stop-color="#34D399"/>
      <stop offset="100%" stop-color="#059669"/>
    </linearGradient>
    <linearGradient id="alertGrad" x1="0" x2="0" y1="0" y2="1">
      <stop offset="0%" stop-color="#FCA5A5"/>
      <stop offset="100%" stop-color="#DC2626"/>
    </linearGradient>
  </defs>

  <rect x="0" y="0" width="1480" height="1080" fill="#F8FAFC"/>

  <text x="740" y="40" text-anchor="middle" font-size="26" font-weight="700" fill="#0F172A">NovaCart Data Engineering Architecture on Databricks</text>
  <text x="740" y="64" text-anchor="middle" font-size="14" fill="#475569">Lakehouse Federation, Medallion Architecture, Delta Lake, SCD2 History, and Workflow Orchestration</text>

  <g>
    <rect x="40" y="120" width="240" height="320" rx="16" ry="16" fill="url(#azureGrad)" stroke="#0F172A" stroke-width="1.5"/>
    <text x="160" y="152" text-anchor="middle" font-size="16" font-weight="700" fill="#FFFFFF">Azure SQL Database</text>
    <text x="160" y="174" text-anchor="middle" font-size="12" fill="#E0F2FE">Source System (OLTP)</text>

    <rect x="62" y="200" width="196" height="62" rx="8" ry="8" fill="#FFFFFF" stroke="#0F172A" stroke-width="1"/>
    <text x="160" y="226" text-anchor="middle" font-size="13" font-weight="600" fill="#0F172A">Customer Orders</text>
    <text x="160" y="246" text-anchor="middle" font-size="11" fill="#475569">orders.updated_at, order_id</text>

    <rect x="62" y="276" width="196" height="62" rx="8" ry="8" fill="#FFFFFF" stroke="#0F172A" stroke-width="1"/>
    <text x="160" y="302" text-anchor="middle" font-size="13" font-weight="600" fill="#0F172A">Product Details</text>
    <text x="160" y="322" text-anchor="middle" font-size="11" fill="#475569">products.updated_at, product_id</text>

    <rect x="62" y="352" width="196" height="62" rx="8" ry="8" fill="#FFFFFF" stroke="#0F172A" stroke-width="1"/>
    <text x="160" y="378" text-anchor="middle" font-size="13" font-weight="600" fill="#0F172A">Payment Transactions</text>
    <text x="160" y="398" text-anchor="middle" font-size="11" fill="#475569">payments.processed_at, payment_id</text>
  </g>

  <g>
    <rect x="320" y="240" width="160" height="80" rx="12" ry="12" fill="#FFFFFF" stroke="#0078D4" stroke-width="2"/>
    <text x="400" y="270" text-anchor="middle" font-size="13" font-weight="700" fill="#0F172A">Databricks</text>
    <text x="400" y="288" text-anchor="middle" font-size="13" font-weight="700" fill="#0078D4">Lakehouse Federation</text>
    <text x="400" y="308" text-anchor="middle" font-size="11" fill="#475569">Ingestion Connector</text>
  </g>

  <line x1="280" y1="280" x2="320" y2="280" stroke="#334155" stroke-width="2.2" marker-end="url(#arrow)"/>

  <g>
    <rect x="520" y="120" width="700" height="420" rx="18" ry="18" fill="#FFFFFF" stroke="url(#dbxGrad)" stroke-width="3"/>
    <rect x="520" y="120" width="700" height="44" rx="18" ry="18" fill="url(#dbxGrad)"/>
    <text x="540" y="150" font-size="16" font-weight="700" fill="#FFFFFF">Azure Databricks</text>
    <text x="540" y="164" font-size="11" fill="#FFE8E2">Processing Platform</text>

    <g>
      <rect x="1050" y="130" width="150" height="28" rx="14" ry="14" fill="#0F172A"/>
      <circle cx="1068" cy="144" r="9" fill="#FFFFFF"/>
      <text x="1090" y="149" font-size="12" font-weight="600" fill="#FFFFFF">GitHub Version Control</text>
    </g>

    <g>
      <rect x="540" y="190" width="660" height="330" rx="14" ry="14" fill="url(#ucGrad)" stroke="#D97706" stroke-width="1.6"/>
      <text x="870" y="218" text-anchor="middle" font-size="15" font-weight="700" fill="#92400E">Unity Catalog</text>
      <text x="870" y="234" text-anchor="middle" font-size="11" fill="#9A3412">dbw_data_prj</text>

      <g>
        <rect x="560" y="250" width="620" height="252" rx="12" ry="12" fill="url(#repoGrad)" stroke="#1D4ED8" stroke-width="1.4"/>
        <text x="870" y="276" text-anchor="middle" font-size="13" font-weight="700" fill="#1E3A8A">Databricks Repos</text>

        <g>
          <rect x="580" y="296" width="180" height="190" rx="12" ry="12" fill="url(#bronzeGrad)" stroke="#0F172A" stroke-width="1.2"/>
          <text x="670" y="322" text-anchor="middle" font-size="14" font-weight="700" fill="#0F172A">Bronze</text>
          <text x="670" y="342" text-anchor="middle" font-size="11" font-weight="600" fill="#0F172A">Incremental Data Loading</text>
          <line x1="600" y1="354" x2="740" y2="354" stroke="#0F172A" stroke-opacity="0.35"/>
          <text x="670" y="372" text-anchor="middle" font-size="10.5" fill="#0F172A">orders_raw</text>
          <text x="670" y="388" text-anchor="middle" font-size="10.5" fill="#0F172A">products_raw</text>
          <text x="670" y="404" text-anchor="middle" font-size="10.5" fill="#0F172A">payments_raw</text>
          <text x="670" y="424" text-anchor="middle" font-size="10.5" font-style="italic" fill="#0F172A">ingestion_control</text>
          <text x="670" y="448" text-anchor="middle" font-size="10" fill="#0F172A">Watermark of</text>
          <text x="670" y="462" text-anchor="middle" font-size="10" fill="#0F172A">timestamp + primary key</text>
        </g>

        <g>
          <rect x="780" y="296" width="180" height="190" rx="12" ry="12" fill="url(#silverGrad)" stroke="#0F172A" stroke-width="1.2"/>
          <text x="870" y="322" text-anchor="middle" font-size="14" font-weight="700" fill="#0F172A">Silver</text>
          <text x="870" y="342" text-anchor="middle" font-size="11" font-weight="600" fill="#0F172A">Cleaning and Transformations</text>
          <line x1="800" y1="354" x2="940" y2="354" stroke="#0F172A" stroke-opacity="0.35"/>
          <text x="870" y="372" text-anchor="middle" font-size="10.5" fill="#0F172A">orders_cleaned, _transformed</text>
          <text x="870" y="388" text-anchor="middle" font-size="10.5" fill="#0F172A">products_cleaned, _transformed</text>
          <text x="870" y="404" text-anchor="middle" font-size="10.5" fill="#0F172A">payments_cleaned, _transformed</text>
          <text x="870" y="424" text-anchor="middle" font-size="10.5" font-style="italic" fill="#B91C1C">orders / products / payments</text>
          <text x="870" y="438" text-anchor="middle" font-size="10.5" font-style="italic" fill="#B91C1C">_quarantine</text>
          <text x="870" y="462" text-anchor="middle" font-size="10" fill="#0F172A">processing_control</text>
        </g>

        <g>
          <rect x="980" y="296" width="180" height="190" rx="12" ry="12" fill="url(#goldGrad)" stroke="#0F172A" stroke-width="1.2"/>
          <text x="1070" y="322" text-anchor="middle" font-size="14" font-weight="700" fill="#0F172A">Gold</text>
          <text x="1070" y="342" text-anchor="middle" font-size="11" font-weight="600" fill="#0F172A">Joining, Enrichment, SCD2,</text>
          <text x="1070" y="356" text-anchor="middle" font-size="11" font-weight="600" fill="#0F172A">Business Aggregations</text>
          <line x1="1000" y1="368" x2="1140" y2="368" stroke="#0F172A" stroke-opacity="0.35"/>
          <text x="1070" y="386" text-anchor="middle" font-size="10.5" fill="#0F172A">orders_information</text>
          <text x="1070" y="402" text-anchor="middle" font-size="10.5" fill="#0F172A">orders_information_scd2</text>
          <text x="1070" y="418" text-anchor="middle" font-size="10.5" fill="#0F172A">category_performance</text>
          <text x="1070" y="438" text-anchor="middle" font-size="10" fill="#0F172A">Snapshots on Volume:</text>
          <text x="1070" y="452" text-anchor="middle" font-size="10" fill="#0F172A">latest + timestamped runs</text>
          <text x="1070" y="472" text-anchor="middle" font-size="10" fill="#0F172A">processing_control</text>
        </g>

        <line x1="760" y1="392" x2="780" y2="392" stroke="#0F172A" stroke-width="2" marker-end="url(#arrow)"/>
        <line x1="960" y1="392" x2="980" y2="392" stroke="#0F172A" stroke-width="2" marker-end="url(#arrow)"/>
      </g>
    </g>
  </g>

  <line x1="480" y1="280" x2="520" y2="280" stroke="#334155" stroke-width="2.2" marker-end="url(#arrow)"/>

  <g>
    <rect x="1260" y="240" width="180" height="100" rx="14" ry="14" fill="url(#biGrad)" stroke="#0F172A" stroke-width="1.4"/>
    <text x="1350" y="278" text-anchor="middle" font-size="15" font-weight="700" fill="#FFFFFF">BI Dashboards</text>
    <text x="1350" y="300" text-anchor="middle" font-size="11" fill="#EDE9FE">Databricks SQL</text>
    <text x="1350" y="318" text-anchor="middle" font-size="11" fill="#EDE9FE">Consumption Layer</text>
  </g>

  <line x1="1220" y1="290" x2="1260" y2="290" stroke="#334155" stroke-width="2.2" marker-end="url(#arrow)"/>

  <g>
    <rect x="180" y="640" width="1100" height="80" rx="16" ry="16" fill="url(#jobsGrad)" stroke="#0F172A" stroke-width="1.4"/>
    <text x="730" y="670" text-anchor="middle" font-size="17" font-weight="700" fill="#FFFFFF">Databricks Jobs and Workflows</text>
    <text x="730" y="694" text-anchor="middle" font-size="12" fill="#ECFDF5">Sequential Notebook Execution then Dashboard Refresh then Alert Evaluation</text>
  </g>

  <line x1="730" y1="540" x2="730" y2="640" stroke="#334155" stroke-width="2.2" stroke-dasharray="6 4" marker-end="url(#arrow)"/>
  <text x="746" y="600" font-size="12" font-style="italic" fill="#475569">orchestrates</text>

  <g>
    <rect x="220" y="780" width="240" height="90" rx="14" ry="14" fill="#FFFFFF" stroke="#059669" stroke-width="1.6"/>
    <text x="340" y="812" text-anchor="middle" font-size="14" font-weight="700" fill="#065F46">Notebook Files</text>
    <text x="340" y="832" text-anchor="middle" font-size="11" fill="#0F172A">novacart_bronze</text>
    <text x="340" y="848" text-anchor="middle" font-size="11" fill="#0F172A">novacart_silver</text>
    <text x="340" y="864" text-anchor="middle" font-size="11" fill="#0F172A">novacart_gold</text>
  </g>

  <g>
    <rect x="560" y="780" width="240" height="90" rx="14" ry="14" fill="#FFFFFF" stroke="#7C3AED" stroke-width="1.6"/>
    <text x="680" y="812" text-anchor="middle" font-size="14" font-weight="700" fill="#5B21B6">BI Dashboard Refresh</text>
    <text x="680" y="834" text-anchor="middle" font-size="11" fill="#0F172A">Auto refresh of Gold tables</text>
    <text x="680" y="852" text-anchor="middle" font-size="11" fill="#0F172A">in Databricks SQL Dashboards</text>
  </g>

  <g>
    <rect x="900" y="780" width="240" height="90" rx="14" ry="14" fill="url(#alertGrad)" stroke="#0F172A" stroke-width="1.4"/>
    <text x="1020" y="812" text-anchor="middle" font-size="14" font-weight="700" fill="#FFFFFF">Alert</text>
    <text x="1020" y="834" text-anchor="middle" font-size="11" fill="#FEF2F2">Quality and failure</text>
    <text x="1020" y="852" text-anchor="middle" font-size="11" fill="#FEF2F2">conditions evaluated</text>
  </g>

  <line x1="340" y1="720" x2="340" y2="780" stroke="#334155" stroke-width="2" marker-end="url(#arrow)"/>
  <line x1="680" y1="720" x2="680" y2="780" stroke="#334155" stroke-width="2" marker-end="url(#arrow)"/>
  <line x1="1020" y1="720" x2="1020" y2="780" stroke="#334155" stroke-width="2" marker-end="url(#arrow)"/>

  <g>
    <polygon points="1020,920 1110,970 1020,1020 930,970" fill="#FEF3C7" stroke="#92400E" stroke-width="1.8"/>
    <text x="1020" y="966" text-anchor="middle" font-size="12" font-weight="700" fill="#0F172A">Trigger?</text>
    <text x="1020" y="982" text-anchor="middle" font-size="11" fill="#475569">Condition met</text>
  </g>

  <line x1="1020" y1="870" x2="1020" y2="920" stroke="#334155" stroke-width="2" marker-end="url(#arrow)"/>

  <g>
    <rect x="1180" y="940" width="220" height="70" rx="14" ry="14" fill="#FFFFFF" stroke="#16A34A" stroke-width="1.8"/>
    <text x="1290" y="970" text-anchor="middle" font-size="13" font-weight="700" fill="#065F46">Trigger Notification</text>
    <text x="1290" y="990" text-anchor="middle" font-size="11" fill="#0F172A">Email or webhook to on call</text>
  </g>

  <line x1="1110" y1="970" x2="1180" y2="970" stroke="#16A34A" stroke-width="2.2" marker-end="url(#arrowGreen)"/>
  <text x="1140" y="962" font-size="12" font-weight="700" fill="#16A34A">Yes</text>

  <g>
    <rect x="800" y="940" width="100" height="60" rx="14" ry="14" fill="#FFFFFF" stroke="#DC2626" stroke-width="1.5" stroke-dasharray="4 4"/>
    <text x="850" y="975" text-anchor="middle" font-size="12" font-weight="600" fill="#7F1D1D">No action</text>
  </g>

  <line x1="930" y1="970" x2="900" y2="970" stroke="#DC2626" stroke-width="2" marker-end="url(#arrowRed)"/>
  <text x="903" y="962" text-anchor="end" font-size="12" font-weight="700" fill="#DC2626">No</text>

  <line x1="1160" y1="392" x2="1260" y2="290" stroke="#334155" stroke-width="2.2" marker-end="url(#arrow)"/>

  <g font-size="11" fill="#334155">
    <rect x="40" y="980" width="280" height="80" rx="10" ry="10" fill="#FFFFFF" stroke="#CBD5E1" stroke-width="1"/>
    <text x="56" y="1004" font-weight="700" fill="#0F172A">Legend</text>
    <rect x="56" y="1014" width="14" height="14" fill="url(#bronzeGrad)" stroke="#0F172A"/>
    <text x="78" y="1026">Bronze</text>
    <rect x="130" y="1014" width="14" height="14" fill="url(#silverGrad)" stroke="#0F172A"/>
    <text x="152" y="1026">Silver</text>
    <rect x="200" y="1014" width="14" height="14" fill="url(#goldGrad)" stroke="#0F172A"/>
    <text x="222" y="1026">Gold</text>
    <line x1="56" y1="1046" x2="86" y2="1046" stroke="#334155" stroke-width="2.2" marker-end="url(#arrow)"/>
    <text x="92" y="1050">Data flow</text>
    <line x1="170" y1="1046" x2="200" y2="1046" stroke="#334155" stroke-width="2.2" stroke-dasharray="6 4" marker-end="url(#arrow)"/>
    <text x="206" y="1050">Control flow</text>
  </g>
</svg>
